<svg data-v-0dd9719b="" version="1.0" xmlns="http://www.w3.org/2000/svg" xmlns:xlink="http://www.w3.org/1999/xlink" width="100%" height="100%" viewBox="0 0 340.000000 250.000000" preserveAspectRatio="xMidYMid meet" color-interpolation-filters="sRGB" style="margin: auto;"> <rect data-v-0dd9719b="" x="0" y="0" width="100%" height="100%" fill="#fff" fill-opacity="1" class="background"></rect> <rect data-v-0dd9719b="" x="0" y="0" width="100%" height="100%" fill="url(#watermark)" fill-opacity="1" class="watermarklayer"></rect> <g data-v-0dd9719b="" fill="#ef7f06" class="icon-text-wrapper icon-svg-group iconsvg" transform="translate(47.220001220703125,95.00090026855469)"><g class="iconsvg-imagesvg" transform="translate(0,0)"><g><rect fill="#ef7f06" fill-opacity="0" stroke-width="2" x="0" y="0" width="60" height="59.99820005399838" class="image-rect"></rect> <svg x="0" y="0" width="60" height="59.99820005399838" filtersec="colorsb3714038504" class="image-svg-svg primary" style="overflow: visible;"><svg version="1.1" id="图层_1" xmlns="http://www.w3.org/2000/svg" xmlns:xlink="http://www.w3.org/1999/xlink" x="0px" y="0px" viewBox="-0.2199999988079071 0 887.3299560546875 887.300048828125" enable-background="new 0 0 887 887" xml:space="preserve">
<path fill="#EF7F06" d="M820.46,209.89c23.2,45.12,36.41,96.31,36.41,150.56c0,182.38-147.81,330.2-330.24,330.23
	c-182.42,0-330.21-147.78-330.23-330.23c0-182.36,147.84-330.17,330.19-330.17c54.32,0,105.47,13.13,150.65,36.35
	C609.34,24.42,529.24,0,443.48,0C198.42,0-0.22,198.63-0.22,443.67c0,245,198.64,443.63,443.64,443.63
	c245.02-0.03,443.69-198.6,443.69-443.7C887.11,357.85,862.71,277.78,820.46,209.89z M337.59,327.74
	c0,44.89,12.72,86.69,34.82,122.17c-12.15-23.58-19.03-50.34-18.99-78.73c-0.03-95.26,77.25-172.61,172.6-172.61
	c95.32,0,172.54,77.28,172.61,172.58c0,95.38-77.29,172.68-172.61,172.64c-28.39,0-55.18-6.85-78.76-18.98
	c35.53,22.04,77.35,34.79,122.2,34.79c128.07,0,231.93-103.79,231.93-231.86c0-128.1-103.9-231.94-231.93-231.94
	C441.38,95.8,337.56,199.64,337.59,327.74z M579.54,408.34c0-44.5-36.1-80.6-80.68-80.6c-44.5,0-80.57,36.07-80.57,80.6
	c-0.03,44.59,36.07,80.65,80.65,80.65C543.47,489.03,579.54,452.96,579.54,408.34z"></path>
</svg></svg> <!----></g></g> <g transform="translate(67.00000381469727,19.209099769592285)"><g data-gra="path-name" fill-rule="" class="tp-name iconsvg-namesvg"><g transform="scale(1)"><g><path d="M17.8-21.36L22.93-21.36 13.58 0 9.03 0 0.03-21.36 5.16-21.36 11.43-5.28 17.8-21.36ZM25.07 0L25.07-15.6 29.36-15.6 29.36 0 25.07 0ZM29.36-17.2L25.07-17.2 25.07-21.36 29.36-21.36 29.36-17.2ZM37.98-15.6L47.14-15.6 47.14-12.26 39.55-12.26Q38.24-12.26 37.88-12.14L37.88-12.14Q37.15-11.88 37.15-10.89L37.15-10.89Q37.15-10.06 37.85-9.61L37.85-9.61Q38.24-9.35 39.93-9.35L39.93-9.35 42.46-9.35Q44.9-9.35 46.3-8.33L46.3-8.33Q47.87-7.17 47.87-4.93L47.87-4.93Q47.87-3.23 46.91-1.83L46.91-1.83Q46.21-0.7 45.2-0.35 44.19 0 41.82 0L41.82 0 32.95 0 32.95-3.33 40.6-3.33Q42.01-3.33 42.53-3.36L42.53-3.36Q43.68-3.49 43.68-4.68L43.68-4.68Q43.68-5.64 42.91-5.99L42.91-5.99Q42.53-6.18 41.05-6.18L41.05-6.18 38.46-6.18Q36.92-6.18 36.11-6.37 35.29-6.56 34.58-7.08L34.58-7.08Q33.72-7.69 33.22-8.76 32.73-9.83 32.73-11.05L32.73-11.05Q32.73-13.39 34.42-14.76L34.42-14.76Q35.45-15.6 37.98-15.6L37.98-15.6ZM51.14 0L51.14-15.6 55.43-15.6 55.43 0 51.14 0ZM55.43-17.2L51.14-17.2 51.14-21.36 55.43-21.36 55.43-17.2ZM66.86-15.82L66.86-15.82Q71.19-15.82 73.24-13.32L73.24-13.32Q75.13-11.05 75.13-7.59L75.13-7.59Q75.13-3.94 72.76-1.76L72.76-1.76Q70.58 0.22 66.8 0.22L66.8 0.22Q62.89 0.22 60.68-2.02L60.68-2.02Q58.63-4.03 58.63-7.91L58.63-7.91Q58.63-11.18 60.59-13.35L60.59-13.35Q62.76-15.79 66.86-15.82ZM66.9-12.55L66.9-12.55Q63.02-12.55 63.02-7.75L63.02-7.75Q63.02-5.8 63.66-4.77L63.66-4.77Q64.72-3.04 66.93-3.04L66.93-3.04Q70.74-3.04 70.74-7.81L70.74-7.81Q70.74-12.49 66.9-12.55ZM78.3 0L78.3-15.6 86.56-15.6Q88.41-15.6 89.39-15.32 90.37-15.05 91.17-14.35L91.17-14.35Q92.8-12.84 92.8-9.61L92.8-9.61 92.8 0 88.51 0 88.51-10.09Q88.51-11.24 88-11.75 87.49-12.26 86.3-12.26L86.3-12.26 82.59-12.26 82.59 0 78.3 0ZM122.62-3.81L129.15-3.81 129.15 0 121.69 0Q119.57 0 118.45-0.22L118.45-0.22Q114.51-0.99 112.85-4.61L112.85-4.61Q111.76-7.05 111.76-10.63L111.76-10.63Q111.76-14.92 113.42-17.61L113.42-17.61Q114.64-19.57 116.67-20.46 118.71-21.36 121.91-21.36L121.91-21.36 129.15-21.36 129.15-17.55 122.42-17.55Q119.38-17.55 117.97-15.92L117.97-15.92Q116.79-14.57 116.79-11.05L116.79-11.05Q116.79-6.31 118.61-4.84L118.61-4.84Q119.89-3.81 122.62-3.81L122.62-3.81ZM139.43-15.82L139.43-15.82Q143.75-15.82 145.8-13.32L145.8-13.32Q147.69-11.05 147.69-7.59L147.69-7.59Q147.69-3.94 145.32-1.76L145.32-1.76Q143.14 0.22 139.36 0.22L139.36 0.22Q135.46 0.22 133.25-2.02L133.25-2.02Q131.2-4.03 131.2-7.91L131.2-7.91Q131.2-11.18 133.15-13.35L133.15-13.35Q135.33-15.79 139.43-15.82ZM139.46-12.55L139.46-12.55Q135.58-12.55 135.58-7.75L135.58-7.75Q135.58-5.8 136.22-4.77L136.22-4.77Q137.28-3.04 139.49-3.04L139.49-3.04Q143.3-3.04 143.3-7.81L143.3-7.81Q143.3-12.49 139.46-12.55ZM150.86 0L150.86-15.6 157.2-15.6Q159.15-15.6 160.23-15.32 161.3-15.05 162-14.41L162-14.41Q162.71-13.77 163-12.81 163.28-11.85 163.28-10.06L163.28-10.06 163.28-8.55 159.15-8.55 159.15-9.38Q159.15-11.05 158.58-11.66 158-12.26 156.37-12.26L156.37-12.26 155.15-12.26 155.15 0 150.86 0ZM169.56-9.48L178.59-9.48 178.59-6.15 169.56-6.15Q169.69-4.61 170.55-3.97 171.42-3.33 173.37-3.33L173.37-3.33 178.59-3.33 178.59 0 172.89 0Q171.03 0 169.86-0.34 168.7-0.67 167.67-1.44L167.67-1.44Q164.82-3.65 164.82-8.01L164.82-8.01Q164.82-10.82 166.33-12.94L166.33-12.94Q167.35-14.38 168.79-14.99 170.23-15.6 172.57-15.6L172.57-15.6 178.59-15.6 178.59-12.26 172.89-12.26Q171.13-12.26 170.43-11.67 169.72-11.08 169.56-9.48L169.56-9.48Z" transform="translate(-0.030000001192092896, 21.360000610351562)"></path></g> <!----> <!----> <!----> <!----> <!----> <!----> <!----></g></g> <!----></g></g><defs v-gra="od"></defs></svg>